<?xml version="1.0" encoding="UTF-8"?>
<svg id="Layer_1" xmlns="http://www.w3.org/2000/svg" xmlns:xlink="http://www.w3.org/1999/xlink" version="1.1" viewBox="0 0 1920 207.3">
  <!-- Generator: Adobe Illustrator 29.2.1, SVG Export Plug-In . SVG Version: 2.1.0 Build 116)  -->
  <defs>
    <style>
      .st0, .st1 {
        opacity: .8;
      }

      .st2, .st3, .st4, .st5, .st1, .st6, .st7, .st8 {
        fill: #07286e;
      }

      .st3 {
        opacity: .4;
      }

      .st3, .st4, .st5, .st1, .st6, .st7, .st8 {
        isolation: isolate;
      }

      .st4 {
        opacity: .7;
      }

      .st5 {
        opacity: .9;
      }

      .st6 {
        opacity: .3;
      }

      .st7 {
        opacity: .5;
      }

      .st8 {
        opacity: .6;
      }
    </style>
  </defs>
  <g class="st0">
    <g>
      <rect class="st6" x="415.8" y="-222.9" width="8" height="8"/>
      <rect class="st2" x="322.3" y="-37.9" width="35.8" height="35.8"/>
      <rect class="st5" x="364.1" y="-35.9" width="31.8" height="31.8"/>
      <rect class="st5" x="324.3" y="-75.7" width="31.8" height="31.8"/>
      <rect class="st5" x="324.3" y="3.9" width="31.8" height="31.8"/>
      <rect class="st4" x="248.7" y="87.5" width="23.9" height="23.9"/>
      <rect class="st5" x="284.5" y="-35.9" width="31.8" height="31.8"/>
      <rect class="st4" x="208.9" y="47.7" width="23.9" height="23.9"/>
      <rect class="st4" x="169.1" y="7.9" width="23.9" height="23.9"/>
      <rect class="st8" x="131.3" y="9.9" width="19.9" height="19.9"/>
      <rect class="st7" x="53.7" y="51.7" width="15.9" height="15.9"/>
      <rect class="st1" x="286.4" y="-73.7" width="27.9" height="27.9"/>
      <rect class="st1" x="286.5" y="5.9" width="27.9" height="27.9"/>
      <rect class="st1" x="326.3" y="45.7" width="27.9" height="27.9"/>
      <rect class="st1" x="366.1" y="5.9" width="27.9" height="27.9"/>
      <rect class="st1" x="366" y="-73.6" width="27.9" height="27.9"/>
      <rect class="st1" x="326.2" y="-113.4" width="27.9" height="27.9"/>
      <rect class="st1" x="246.6" y="-33.9" width="27.9" height="27.9"/>
      <rect class="st1" x="405.8" y="-33.8" width="27.9" height="27.9"/>
      <rect class="st5" x="165.2" y="83.5" width="31.8" height="31.8"/>
      <rect class="st1" x="167.1" y="45.7" width="27.9" height="27.9"/>
      <rect class="st2" x="83.5" y="-117.5" width="35.8" height="35.8"/>
      <rect class="st5" x="125.3" y="-115.5" width="31.8" height="31.8"/>
      <rect class="st5" x="85.6" y="-155.3" width="31.8" height="31.8"/>
      <rect class="st5" x="45.8" y="-115.5" width="31.8" height="31.8"/>
      <rect class="st1" x="47.7" y="-153.3" width="27.9" height="27.9"/>
      <rect class="st1" x="47.6" y="-73.7" width="27.9" height="27.9"/>
      <rect class="st1" x="87.4" y="-33.9" width="27.9" height="27.9"/>
      <rect class="st1" x="127.2" y="-73.7" width="27.9" height="27.9"/>
      <rect class="st1" x="127.2" y="-153.3" width="27.9" height="27.9"/>
      <rect class="st1" x="87.5" y="-193.1" width="27.9" height="27.9"/>
      <rect class="st1" x="7.9" y="-113.5" width="27.9" height="27.9"/>
      <rect class="st1" x="167" y="-113.5" width="27.9" height="27.9"/>
      <rect class="st5" x="85.5" y="-75.7" width="31.8" height="31.8"/>
      <rect class="st4" x="129.3" y="47.7" width="23.9" height="23.9"/>
      <rect class="st4" x="89.5" y="87.5" width="23.9" height="23.9"/>
      <rect class="st4" x="49.7" y="127.3" width="23.9" height="23.9"/>
      <rect class="st4" x="288.5" y="127.3" width="23.9" height="23.9"/>
      <rect class="st4" x="288.5" y="47.7" width="23.9" height="23.9"/>
      <rect class="st4" x="248.7" y="7.9" width="23.9" height="23.9"/>
      <rect class="st4" x="208.9" y="-31.9" width="23.9" height="23.9"/>
      <rect class="st8" x="210.9" y="9.9" width="19.9" height="19.9"/>
      <rect class="st8" x="250.7" y="49.7" width="19.9" height="19.9"/>
      <rect class="st8" x="290.5" y="89.5" width="19.9" height="19.9"/>
      <rect class="st8" x="171.1" y="-29.9" width="19.9" height="19.9"/>
      <rect class="st4" x="169.1" y="-71.7" width="23.9" height="23.9"/>
      <rect class="st4" x="129.3" y="-31.9" width="23.9" height="23.9"/>
      <rect class="st4" x="89.5" y="7.9" width="23.9" height="23.9"/>
      <rect class="st4" x="49.7" y="-31.9" width="23.9" height="23.9"/>
      <rect class="st4" x="208.8" y="-111.5" width="23.9" height="23.9"/>
      <rect class="st4" x="169" y="-151.3" width="23.9" height="23.9"/>
      <rect class="st4" x="129.3" y="-191.1" width="23.9" height="23.9"/>
      <rect class="st4" x="10" y="-71.7" width="23.9" height="23.9"/>
      <rect class="st4" x="9.9" y="-151.3" width="23.9" height="23.9"/>
      <rect class="st4" x="49.7" y="-191.1" width="23.9" height="23.9"/>
      <rect class="st4" x="89.5" y="-230.9" width="23.9" height="23.9"/>
      <rect class="st8" x="51.7" y="9.9" width="19.9" height="19.9"/>
      <rect class="st8" x="91.5" y="49.7" width="19.9" height="19.9"/>
      <rect class="st8" x="11.9" y="-29.9" width="19.9" height="19.9"/>
      <rect class="st8" x="11.9" y="129.3" width="19.9" height="19.9"/>
      <rect class="st8" x="171" y="-189.1" width="19.9" height="19.9"/>
      <rect class="st8" x="210.8" y="-149.3" width="19.9" height="19.9"/>
      <rect class="st8" x="250.7" y="-109.5" width="19.9" height="19.9"/>
      <rect class="st8" x="131.3" y="-228.9" width="19.9" height="19.9"/>
      <rect class="st4" x="248.7" y="-71.7" width="23.9" height="23.9"/>
      <rect class="st8" x="210.9" y="-69.7" width="19.9" height="19.9"/>
      <rect class="st8" x="51.7" y="-228.9" width="19.9" height="19.9"/>
      <rect class="st8" x="11.9" y="-189.1" width="19.9" height="19.9"/>
      <rect class="st4" x="368.1" y="47.7" width="23.9" height="23.9"/>
      <rect class="st4" x="407.9" y="7.9" width="23.9" height="23.9"/>
      <rect class="st4" x="447.7" y="-31.8" width="23.9" height="23.9"/>
      <rect class="st8" x="409.9" y="49.6" width="19.9" height="19.9"/>
      <rect class="st8" x="449.7" y="9.9" width="19.9" height="19.9"/>
      <rect class="st8" x="370.1" y="89.5" width="19.9" height="19.9"/>
      <rect class="st8" x="210.8" y="-228.8" width="19.9" height="19.9"/>
      <rect class="st7" x="13.9" y="11.9" width="15.9" height="15.9"/>
      <rect class="st7" x="13.9" y="91.5" width="15.9" height="15.9"/>
      <rect class="st7" x="451.7" y="51.6" width="15.9" height="15.9"/>
      <rect class="st7" x="13.9" y="-226.9" width="15.9" height="15.9"/>
      <rect class="st4" x="407.9" y="-71.6" width="23.9" height="23.9"/>
      <rect class="st4" x="368" y="-111.4" width="23.9" height="23.9"/>
      <rect class="st4" x="328.2" y="-151.2" width="23.9" height="23.9"/>
      <rect class="st4" x="288.4" y="-111.5" width="23.9" height="23.9"/>
      <rect class="st8" x="290.4" y="-149.2" width="19.9" height="19.9"/>
      <rect class="st8" x="370" y="-149.2" width="19.9" height="19.9"/>
      <rect class="st8" x="409.9" y="-109.5" width="19.9" height="19.9"/>
      <rect class="st8" x="449.7" y="-69.7" width="19.9" height="19.9"/>
      <rect class="st8" x="330.2" y="-189" width="19.9" height="19.9"/>
      <rect class="st4" x="169.1" y="-230.9" width="23.9" height="23.9"/>
      <rect class="st7" x="372.1" y="131.2" width="15.9" height="15.9"/>
      <rect class="st7" x="332.2" y="-226.8" width="15.9" height="15.9"/>
      <rect class="st7" x="292.5" y="-187" width="15.9" height="15.9"/>
      <rect class="st7" x="252.7" y="-147.3" width="15.9" height="15.9"/>
      <rect class="st7" x="212.9" y="-187.1" width="15.9" height="15.9"/>
      <rect class="st7" x="411.9" y="-147.3" width="15.9" height="15.9"/>
      <rect class="st7" x="372.1" y="-187.1" width="15.9" height="15.9"/>
      <rect class="st3" x="254.7" y="-185" width="11.9" height="11.9"/>
      <rect class="st7" x="252.6" y="-226.8" width="15.9" height="15.9"/>
      <rect class="st3" x="294.5" y="-224.9" width="11.9" height="11.9"/>
      <rect class="st3" x="374.1" y="-224.9" width="11.9" height="11.9"/>
      <rect class="st3" x="413.9" y="-185.1" width="11.9" height="11.9"/>
      <rect class="st3" x="15.9" y="53.7" width="11.9" height="11.9"/>
      <rect class="st4" x="447.6" y="-111.4" width="23.9" height="23.9"/>
      <rect class="st8" x="449.6" y="-149.3" width="19.9" height="19.9"/>
      <rect class="st7" x="451.7" y="-187.1" width="15.9" height="15.9"/>
      <rect class="st3" x="453.7" y="-224.9" width="11.9" height="11.9"/>
      <rect class="st3" x="453.6" y="93.4" width="11.9" height="11.9"/>
      <rect class="st3" x="413.8" y="133.2" width="11.9" height="11.9"/>
    </g>
    <g>
      <rect class="st6" x="893.3" y="-222.9" width="8" height="8"/>
      <rect class="st2" x="799.8" y="-37.9" width="35.8" height="35.8"/>
      <rect class="st5" x="841.6" y="-35.9" width="31.8" height="31.8"/>
      <rect class="st5" x="801.8" y="-75.7" width="31.8" height="31.8"/>
      <rect class="st5" x="801.8" y="3.9" width="31.8" height="31.8"/>
      <rect class="st5" x="762" y="-35.9" width="31.8" height="31.8"/>
      <rect class="st4" x="686.4" y="47.7" width="23.9" height="23.9"/>
      <rect class="st4" x="646.6" y="7.9" width="23.9" height="23.9"/>
      <rect class="st7" x="531.2" y="51.7" width="15.9" height="15.9"/>
      <rect class="st1" x="763.9" y="-73.7" width="27.9" height="27.9"/>
      <rect class="st1" x="764" y="5.9" width="27.9" height="27.9"/>
      <rect class="st1" x="803.8" y="45.7" width="27.9" height="27.9"/>
      <rect class="st1" x="843.6" y="5.9" width="27.9" height="27.9"/>
      <rect class="st1" x="843.5" y="-73.7" width="27.9" height="27.9"/>
      <rect class="st1" x="803.7" y="-113.5" width="27.9" height="27.9"/>
      <rect class="st1" x="724.1" y="-33.9" width="27.9" height="27.9"/>
      <rect class="st1" x="883.4" y="-33.9" width="27.9" height="27.9"/>
      <rect class="st1" x="684.4" y="85.5" width="27.9" height="27.9"/>
      <rect class="st1" x="644.6" y="45.7" width="27.9" height="27.9"/>
      <rect class="st1" x="565" y="125.3" width="27.9" height="27.9"/>
      <rect class="st2" x="561.1" y="-117.4" width="35.8" height="35.8"/>
      <rect class="st5" x="602.9" y="-115.5" width="31.8" height="31.8"/>
      <rect class="st5" x="563.1" y="-155.2" width="31.8" height="31.8"/>
      <rect class="st5" x="523.3" y="-115.4" width="31.8" height="31.8"/>
      <rect class="st1" x="525.2" y="-153.3" width="27.9" height="27.9"/>
      <rect class="st1" x="525.2" y="-73.7" width="27.9" height="27.9"/>
      <rect class="st1" x="564.9" y="-33.9" width="27.9" height="27.9"/>
      <rect class="st1" x="604.7" y="-73.7" width="27.9" height="27.9"/>
      <rect class="st1" x="604.8" y="-153.3" width="27.9" height="27.9"/>
      <rect class="st1" x="565" y="-193.1" width="27.9" height="27.9"/>
      <rect class="st1" x="485.4" y="-113.4" width="27.9" height="27.9"/>
      <rect class="st1" x="644.5" y="-113.5" width="27.9" height="27.9"/>
      <rect class="st5" x="563.1" y="-75.6" width="31.8" height="31.8"/>
      <rect class="st4" x="606.8" y="47.7" width="23.9" height="23.9"/>
      <rect class="st4" x="766" y="127.3" width="23.9" height="23.9"/>
      <rect class="st4" x="766" y="47.7" width="23.9" height="23.9"/>
      <rect class="st4" x="726.2" y="7.9" width="23.9" height="23.9"/>
      <rect class="st4" x="686.4" y="-31.9" width="23.9" height="23.9"/>
      <rect class="st8" x="688.4" y="9.9" width="19.9" height="19.9"/>
      <rect class="st8" x="768" y="89.5" width="19.9" height="19.9"/>
      <rect class="st8" x="648.6" y="-29.9" width="19.9" height="19.9"/>
      <rect class="st4" x="646.6" y="-71.7" width="23.9" height="23.9"/>
      <rect class="st4" x="606.8" y="-31.9" width="23.9" height="23.9"/>
      <rect class="st4" x="567" y="7.9" width="23.9" height="23.9"/>
      <rect class="st4" x="527.3" y="-31.9" width="23.9" height="23.9"/>
      <rect class="st4" x="686.3" y="-111.5" width="23.9" height="23.9"/>
      <rect class="st4" x="646.6" y="-151.3" width="23.9" height="23.9"/>
      <rect class="st4" x="606.8" y="-191.1" width="23.9" height="23.9"/>
      <rect class="st4" x="487.5" y="-71.7" width="23.9" height="23.9"/>
      <rect class="st4" x="487.4" y="-151.3" width="23.9" height="23.9"/>
      <rect class="st4" x="527.2" y="-191.1" width="23.9" height="23.9"/>
      <rect class="st4" x="567" y="-230.9" width="23.9" height="23.9"/>
      <rect class="st8" x="529.2" y="9.9" width="19.9" height="19.9"/>
      <rect class="st8" x="569" y="49.7" width="19.9" height="19.9"/>
      <rect class="st8" x="489.5" y="-29.9" width="19.9" height="19.9"/>
      <rect class="st8" x="529.2" y="89.5" width="19.9" height="19.9"/>
      <rect class="st8" x="489.4" y="129.2" width="19.9" height="19.9"/>
      <rect class="st8" x="648.6" y="-189.1" width="19.9" height="19.9"/>
      <rect class="st8" x="688.3" y="-149.3" width="19.9" height="19.9"/>
      <rect class="st8" x="728.2" y="-109.5" width="19.9" height="19.9"/>
      <rect class="st8" x="608.8" y="-228.9" width="19.9" height="19.9"/>
      <rect class="st4" x="726.2" y="-71.7" width="23.9" height="23.9"/>
      <rect class="st8" x="688.4" y="-69.7" width="19.9" height="19.9"/>
      <rect class="st8" x="529.2" y="-228.9" width="19.9" height="19.9"/>
      <rect class="st8" x="489.4" y="-189.1" width="19.9" height="19.9"/>
      <rect class="st4" x="845.6" y="47.7" width="23.9" height="23.9"/>
      <rect class="st4" x="885.4" y="7.9" width="23.9" height="23.9"/>
      <rect class="st4" x="925.2" y="-31.9" width="23.9" height="23.9"/>
      <rect class="st8" x="887.4" y="49.7" width="19.9" height="19.9"/>
      <rect class="st8" x="927.2" y="9.9" width="19.9" height="19.9"/>
      <rect class="st8" x="847.6" y="89.5" width="19.9" height="19.9"/>
      <rect class="st8" x="688.4" y="-228.9" width="19.9" height="19.9"/>
      <rect class="st7" x="491.5" y="11.9" width="15.9" height="15.9"/>
      <rect class="st7" x="491.4" y="91.4" width="15.9" height="15.9"/>
      <rect class="st7" x="929.2" y="51.6" width="15.9" height="15.9"/>
      <rect class="st7" x="491.4" y="-226.9" width="15.9" height="15.9"/>
      <rect class="st4" x="885.4" y="-71.7" width="23.9" height="23.9"/>
      <rect class="st4" x="845.5" y="-111.5" width="23.9" height="23.9"/>
      <rect class="st4" x="805.7" y="-151.3" width="23.9" height="23.9"/>
      <rect class="st4" x="765.9" y="-111.5" width="23.9" height="23.9"/>
      <rect class="st8" x="768" y="-149.3" width="19.9" height="19.9"/>
      <rect class="st8" x="847.6" y="-149.2" width="19.9" height="19.9"/>
      <rect class="st8" x="887.4" y="-109.4" width="19.9" height="19.9"/>
      <rect class="st8" x="927.2" y="-69.6" width="19.9" height="19.9"/>
      <rect class="st8" x="807.7" y="-189" width="19.9" height="19.9"/>
      <rect class="st4" x="646.6" y="-230.9" width="23.9" height="23.9"/>
      <rect class="st7" x="849.6" y="131.3" width="15.9" height="15.9"/>
      <rect class="st7" x="809.7" y="-226.8" width="15.9" height="15.9"/>
      <rect class="st7" x="770" y="-187.1" width="15.9" height="15.9"/>
      <rect class="st7" x="730.2" y="-147.3" width="15.9" height="15.9"/>
      <rect class="st7" x="690.5" y="-187.1" width="15.9" height="15.9"/>
      <rect class="st7" x="889.4" y="-147.2" width="15.9" height="15.9"/>
      <rect class="st7" x="849.6" y="-187" width="15.9" height="15.9"/>
      <rect class="st3" x="732.2" y="-185.1" width="11.9" height="11.9"/>
      <rect class="st7" x="730.2" y="-226.9" width="15.9" height="15.9"/>
      <rect class="st3" x="772" y="-224.8" width="11.9" height="11.9"/>
      <rect class="st3" x="851.6" y="-224.8" width="11.9" height="11.9"/>
      <rect class="st3" x="891.4" y="-185.1" width="11.9" height="11.9"/>
      <rect class="st3" x="493.4" y="53.7" width="11.9" height="11.9"/>
      <rect class="st4" x="925.1" y="-111.4" width="23.9" height="23.9"/>
      <rect class="st8" x="927.2" y="-149.2" width="19.9" height="19.9"/>
      <rect class="st7" x="929.2" y="-187.1" width="15.9" height="15.9"/>
      <rect class="st3" x="931.2" y="-224.9" width="11.9" height="11.9"/>
      <rect class="st7" x="929.2" y="131.2" width="15.9" height="15.9"/>
      <rect class="st3" x="931.2" y="93.4" width="11.9" height="11.9"/>
      <rect class="st3" x="891.4" y="133.2" width="11.9" height="11.9"/>
      <rect class="st6" x="893.3" y="175" width="8" height="8"/>
    </g>
  </g>
  <g class="st0">
    <g>
      <rect class="st6" x="1375.9" y="-228.8" width="8" height="8"/>
      <rect class="st2" x="1282.5" y="-43.8" width="35.8" height="35.8"/>
      <rect class="st5" x="1324.3" y="-41.8" width="31.8" height="31.8"/>
      <rect class="st5" x="1284.5" y="-81.6" width="31.8" height="31.8"/>
      <rect class="st5" x="1284.5" y="-2" width="31.8" height="31.8"/>
      <rect class="st4" x="1208.8" y="81.6" width="23.9" height="23.9"/>
      <rect class="st5" x="1244.7" y="-41.8" width="31.8" height="31.8"/>
      <rect class="st4" x="1169" y="41.8" width="23.9" height="23.9"/>
      <rect class="st4" x="1129.2" y="2" width="23.9" height="23.9"/>
      <rect class="st8" x="1091.4" y="4" width="19.9" height="19.9"/>
      <rect class="st7" x="1013.9" y="45.7" width="15.9" height="15.9"/>
      <rect class="st1" x="1246.6" y="-79.6" width="27.9" height="27.9"/>
      <rect class="st1" x="1246.6" y="0" width="27.9" height="27.9"/>
      <rect class="st1" x="1286.4" y="39.8" width="27.9" height="27.9"/>
      <rect class="st1" x="1326.2" y="0" width="27.9" height="27.9"/>
      <rect class="st1" x="1326.2" y="-79.7" width="27.9" height="27.9"/>
      <rect class="st1" x="1286.4" y="-119.4" width="27.9" height="27.9"/>
      <rect class="st1" x="1206.8" y="-39.8" width="27.9" height="27.9"/>
      <rect class="st1" x="1366" y="-39.9" width="27.9" height="27.9"/>
      <rect class="st5" x="1125.3" y="77.6" width="31.8" height="31.8"/>
      <rect class="st1" x="1127.2" y="39.8" width="27.9" height="27.9"/>
      <rect class="st2" x="1043.7" y="-123.4" width="35.8" height="35.8"/>
      <rect class="st5" x="1085.5" y="-121.4" width="31.8" height="31.8"/>
      <rect class="st5" x="1045.8" y="-161.2" width="31.8" height="31.8"/>
      <rect class="st5" x="1006" y="-121.4" width="31.8" height="31.8"/>
      <rect class="st1" x="1007.9" y="-159.2" width="27.9" height="27.9"/>
      <rect class="st1" x="1007.8" y="-79.6" width="27.9" height="27.9"/>
      <rect class="st1" x="1047.6" y="-39.8" width="27.9" height="27.9"/>
      <rect class="st1" x="1087.4" y="-79.6" width="27.9" height="27.9"/>
      <rect class="st1" x="1087.4" y="-159.2" width="27.9" height="27.9"/>
      <rect class="st1" x="1047.7" y="-199" width="27.9" height="27.9"/>
      <rect class="st1" x="968.1" y="-119.4" width="27.9" height="27.9"/>
      <rect class="st1" x="1127.2" y="-119.4" width="27.9" height="27.9"/>
      <rect class="st5" x="1045.7" y="-81.6" width="31.8" height="31.8"/>
      <rect class="st4" x="1089.4" y="41.8" width="23.9" height="23.9"/>
      <rect class="st4" x="1049.6" y="81.5" width="23.9" height="23.9"/>
      <rect class="st4" x="1009.9" y="121.3" width="23.9" height="23.9"/>
      <rect class="st4" x="1248.7" y="121.3" width="23.9" height="23.9"/>
      <rect class="st4" x="1248.6" y="41.7" width="23.9" height="23.9"/>
      <rect class="st4" x="1208.8" y="2" width="23.9" height="23.9"/>
      <rect class="st4" x="1169" y="-37.8" width="23.9" height="23.9"/>
      <rect class="st8" x="1171" y="4" width="19.9" height="19.9"/>
      <rect class="st8" x="1210.8" y="43.7" width="19.9" height="19.9"/>
      <rect class="st8" x="1250.7" y="83.5" width="19.9" height="19.9"/>
      <rect class="st8" x="1131.2" y="-35.8" width="19.9" height="19.9"/>
      <rect class="st4" x="1129.2" y="-77.6" width="23.9" height="23.9"/>
      <rect class="st4" x="1089.4" y="-37.8" width="23.9" height="23.9"/>
      <rect class="st4" x="1049.6" y="2" width="23.9" height="23.9"/>
      <rect class="st4" x="1009.8" y="-37.8" width="23.9" height="23.9"/>
      <rect class="st4" x="1169" y="-117.4" width="23.9" height="23.9"/>
      <rect class="st4" x="1129.2" y="-157.2" width="23.9" height="23.9"/>
      <rect class="st4" x="1089.5" y="-197" width="23.9" height="23.9"/>
      <rect class="st4" x="970.1" y="-77.6" width="23.9" height="23.9"/>
      <rect class="st4" x="970.1" y="-157.2" width="23.9" height="23.9"/>
      <rect class="st4" x="1009.9" y="-197" width="23.9" height="23.9"/>
      <rect class="st4" x="1049.7" y="-236.8" width="23.9" height="23.9"/>
      <rect class="st8" x="1011.8" y="4" width="19.9" height="19.9"/>
      <rect class="st8" x="1051.6" y="43.8" width="19.9" height="19.9"/>
      <rect class="st8" x="972" y="-35.8" width="19.9" height="19.9"/>
      <rect class="st8" x="972.1" y="123.3" width="19.9" height="19.9"/>
      <rect class="st8" x="1131.2" y="-195" width="19.9" height="19.9"/>
      <rect class="st8" x="1171" y="-155.2" width="19.9" height="19.9"/>
      <rect class="st8" x="1210.8" y="-115.5" width="19.9" height="19.9"/>
      <rect class="st8" x="1091.5" y="-234.8" width="19.9" height="19.9"/>
      <rect class="st4" x="1208.8" y="-77.6" width="23.9" height="23.9"/>
      <rect class="st8" x="1171" y="-75.6" width="19.9" height="19.9"/>
      <rect class="st8" x="1011.9" y="-234.8" width="19.9" height="19.9"/>
      <rect class="st8" x="972.1" y="-195" width="19.9" height="19.9"/>
      <rect class="st4" x="1328.2" y="41.7" width="23.9" height="23.9"/>
      <rect class="st4" x="1368" y="1.9" width="23.9" height="23.9"/>
      <rect class="st4" x="1407.8" y="-37.9" width="23.9" height="23.9"/>
      <rect class="st8" x="1370" y="43.7" width="19.9" height="19.9"/>
      <rect class="st8" x="1409.8" y="3.9" width="19.9" height="19.9"/>
      <rect class="st8" x="1330.3" y="83.5" width="19.9" height="19.9"/>
      <rect class="st8" x="1171" y="-234.8" width="19.9" height="19.9"/>
      <rect class="st7" x="974.1" y="5.9" width="15.9" height="15.9"/>
      <rect class="st7" x="974.1" y="85.5" width="15.9" height="15.9"/>
      <rect class="st7" x="1411.9" y="45.7" width="15.9" height="15.9"/>
      <rect class="st7" x="974.1" y="-232.8" width="15.9" height="15.9"/>
      <rect class="st4" x="1368" y="-77.7" width="23.9" height="23.9"/>
      <rect class="st4" x="1328.2" y="-117.5" width="23.9" height="23.9"/>
      <rect class="st4" x="1288.4" y="-157.3" width="23.9" height="23.9"/>
      <rect class="st4" x="1248.6" y="-117.5" width="23.9" height="23.9"/>
      <rect class="st8" x="1250.6" y="-155.3" width="19.9" height="19.9"/>
      <rect class="st8" x="1330.2" y="-155.3" width="19.9" height="19.9"/>
      <rect class="st8" x="1370" y="-115.5" width="19.9" height="19.9"/>
      <rect class="st8" x="1409.8" y="-75.7" width="19.9" height="19.9"/>
      <rect class="st8" x="1290.4" y="-195.1" width="19.9" height="19.9"/>
      <rect class="st4" x="1129.3" y="-236.8" width="23.9" height="23.9"/>
      <rect class="st7" x="1332.3" y="125.3" width="15.9" height="15.9"/>
      <rect class="st7" x="1292.4" y="-232.9" width="15.9" height="15.9"/>
      <rect class="st7" x="1252.6" y="-193.1" width="15.9" height="15.9"/>
      <rect class="st7" x="1212.8" y="-153.3" width="15.9" height="15.9"/>
      <rect class="st7" x="1173" y="-193.1" width="15.9" height="15.9"/>
      <rect class="st7" x="1372" y="-153.3" width="15.9" height="15.9"/>
      <rect class="st7" x="1332.2" y="-193.1" width="15.9" height="15.9"/>
      <rect class="st3" x="1214.8" y="-191.1" width="11.9" height="11.9"/>
      <rect class="st7" x="1212.8" y="-232.9" width="15.9" height="15.9"/>
      <rect class="st3" x="1254.6" y="-230.9" width="11.9" height="11.9"/>
      <rect class="st3" x="1334.2" y="-230.9" width="11.9" height="11.9"/>
      <rect class="st3" x="1374" y="-191.1" width="11.9" height="11.9"/>
      <rect class="st3" x="976.1" y="47.7" width="11.9" height="11.9"/>
      <rect class="st4" x="1407.8" y="-117.5" width="23.9" height="23.9"/>
      <rect class="st8" x="1409.8" y="-155.3" width="19.9" height="19.9"/>
      <rect class="st7" x="1411.8" y="-193" width="15.9" height="15.9"/>
      <rect class="st3" x="1413.8" y="-230.8" width="11.9" height="11.9"/>
      <rect class="st3" x="1413.9" y="87.5" width="11.9" height="11.9"/>
      <rect class="st3" x="1374.1" y="127.3" width="11.9" height="11.9"/>
    </g>
    <g>
      <rect class="st6" x="1853.4" y="-228.9" width="8" height="8"/>
      <rect class="st2" x="1760" y="-43.8" width="35.8" height="35.8"/>
      <rect class="st5" x="1801.8" y="-41.8" width="31.8" height="31.8"/>
      <rect class="st5" x="1762" y="-81.6" width="31.8" height="31.8"/>
      <rect class="st5" x="1762" y="-2" width="31.8" height="31.8"/>
      <rect class="st5" x="1722.2" y="-41.8" width="31.8" height="31.8"/>
      <rect class="st4" x="1646.5" y="41.8" width="23.9" height="23.9"/>
      <rect class="st4" x="1606.7" y="2" width="23.9" height="23.9"/>
      <rect class="st7" x="1491.4" y="45.7" width="15.9" height="15.9"/>
      <rect class="st1" x="1724.1" y="-79.6" width="27.9" height="27.9"/>
      <rect class="st1" x="1724.1" y="0" width="27.9" height="27.9"/>
      <rect class="st1" x="1763.9" y="39.8" width="27.9" height="27.9"/>
      <rect class="st1" x="1803.7" y="0" width="27.9" height="27.9"/>
      <rect class="st1" x="1803.7" y="-79.6" width="27.9" height="27.9"/>
      <rect class="st1" x="1763.9" y="-119.4" width="27.9" height="27.9"/>
      <rect class="st1" x="1684.3" y="-39.8" width="27.9" height="27.9"/>
      <rect class="st1" x="1843.5" y="-39.8" width="27.9" height="27.9"/>
      <rect class="st1" x="1644.5" y="79.5" width="27.9" height="27.9"/>
      <rect class="st1" x="1604.7" y="39.7" width="27.9" height="27.9"/>
      <rect class="st1" x="1525.1" y="119.3" width="27.9" height="27.9"/>
      <rect class="st2" x="1521.3" y="-123.4" width="35.8" height="35.8"/>
      <rect class="st5" x="1563.1" y="-121.4" width="31.8" height="31.8"/>
      <rect class="st5" x="1523.3" y="-161.2" width="31.8" height="31.8"/>
      <rect class="st5" x="1483.5" y="-121.4" width="31.8" height="31.8"/>
      <rect class="st1" x="1485.4" y="-159.2" width="27.9" height="27.9"/>
      <rect class="st1" x="1485.4" y="-79.7" width="27.9" height="27.9"/>
      <rect class="st1" x="1525.1" y="-39.9" width="27.9" height="27.9"/>
      <rect class="st1" x="1564.9" y="-79.6" width="27.9" height="27.9"/>
      <rect class="st1" x="1565" y="-159.2" width="27.9" height="27.9"/>
      <rect class="st1" x="1525.2" y="-199" width="27.9" height="27.9"/>
      <rect class="st1" x="1445.6" y="-119.5" width="27.9" height="27.9"/>
      <rect class="st1" x="1604.7" y="-119.4" width="27.9" height="27.9"/>
      <rect class="st5" x="1523.3" y="-81.6" width="31.8" height="31.8"/>
      <rect class="st4" x="1566.9" y="41.7" width="23.9" height="23.9"/>
      <rect class="st4" x="1726.2" y="121.4" width="23.9" height="23.9"/>
      <rect class="st4" x="1726.1" y="41.8" width="23.9" height="23.9"/>
      <rect class="st4" x="1686.3" y="2" width="23.9" height="23.9"/>
      <rect class="st4" x="1646.5" y="-37.8" width="23.9" height="23.9"/>
      <rect class="st8" x="1648.5" y="4" width="19.9" height="19.9"/>
      <rect class="st8" x="1728.2" y="83.6" width="19.9" height="19.9"/>
      <rect class="st8" x="1608.7" y="-35.8" width="19.9" height="19.9"/>
      <rect class="st4" x="1606.7" y="-77.6" width="23.9" height="23.9"/>
      <rect class="st4" x="1566.9" y="-37.8" width="23.9" height="23.9"/>
      <rect class="st4" x="1527.1" y="1.9" width="23.9" height="23.9"/>
      <rect class="st4" x="1487.4" y="-37.9" width="23.9" height="23.9"/>
      <rect class="st4" x="1646.5" y="-117.4" width="23.9" height="23.9"/>
      <rect class="st4" x="1606.8" y="-157.2" width="23.9" height="23.9"/>
      <rect class="st4" x="1567" y="-197" width="23.9" height="23.9"/>
      <rect class="st4" x="1447.6" y="-77.7" width="23.9" height="23.9"/>
      <rect class="st4" x="1447.6" y="-157.2" width="23.9" height="23.9"/>
      <rect class="st4" x="1487.4" y="-197" width="23.9" height="23.9"/>
      <rect class="st4" x="1527.2" y="-236.8" width="23.9" height="23.9"/>
      <rect class="st8" x="1489.3" y="3.9" width="19.9" height="19.9"/>
      <rect class="st8" x="1529.2" y="43.7" width="19.9" height="19.9"/>
      <rect class="st8" x="1449.6" y="-35.9" width="19.9" height="19.9"/>
      <rect class="st8" x="1489.4" y="83.5" width="19.9" height="19.9"/>
      <rect class="st8" x="1449.6" y="123.3" width="19.9" height="19.9"/>
      <rect class="st8" x="1608.8" y="-195" width="19.9" height="19.9"/>
      <rect class="st8" x="1648.5" y="-155.2" width="19.9" height="19.9"/>
      <rect class="st8" x="1688.3" y="-115.4" width="19.9" height="19.9"/>
      <rect class="st8" x="1569" y="-234.8" width="19.9" height="19.9"/>
      <rect class="st4" x="1686.3" y="-77.6" width="23.9" height="23.9"/>
      <rect class="st8" x="1648.5" y="-75.6" width="19.9" height="19.9"/>
      <rect class="st8" x="1489.4" y="-234.8" width="19.9" height="19.9"/>
      <rect class="st8" x="1449.6" y="-195" width="19.9" height="19.9"/>
      <rect class="st4" x="1805.7" y="41.8" width="23.9" height="23.9"/>
      <rect class="st4" x="1845.5" y="1.9" width="23.9" height="23.9"/>
      <rect class="st4" x="1885.3" y="-37.9" width="23.9" height="23.9"/>
      <rect class="st8" x="1847.6" y="43.7" width="19.9" height="19.9"/>
      <rect class="st8" x="1887.3" y="3.9" width="19.9" height="19.9"/>
      <rect class="st8" x="1807.8" y="83.5" width="19.9" height="19.9"/>
      <rect class="st8" x="1648.6" y="-234.8" width="19.9" height="19.9"/>
      <rect class="st7" x="1451.7" y="5.9" width="15.9" height="15.9"/>
      <rect class="st7" x="1451.6" y="85.5" width="15.9" height="15.9"/>
      <rect class="st7" x="1889.4" y="45.7" width="15.9" height="15.9"/>
      <rect class="st7" x="1451.6" y="-232.8" width="15.9" height="15.9"/>
      <rect class="st4" x="1845.5" y="-77.7" width="23.9" height="23.9"/>
      <rect class="st4" x="1805.7" y="-117.4" width="23.9" height="23.9"/>
      <rect class="st4" x="1765.9" y="-157.2" width="23.9" height="23.9"/>
      <rect class="st4" x="1726.1" y="-117.4" width="23.9" height="23.9"/>
      <rect class="st8" x="1728.1" y="-155.2" width="19.9" height="19.9"/>
      <rect class="st8" x="1807.7" y="-155.3" width="19.9" height="19.9"/>
      <rect class="st8" x="1847.5" y="-115.5" width="19.9" height="19.9"/>
      <rect class="st8" x="1887.3" y="-75.7" width="19.9" height="19.9"/>
      <rect class="st8" x="1767.9" y="-195.1" width="19.9" height="19.9"/>
      <rect class="st4" x="1606.8" y="-236.8" width="23.9" height="23.9"/>
      <rect class="st7" x="1809.8" y="125.3" width="15.9" height="15.9"/>
      <rect class="st7" x="1769.9" y="-232.9" width="15.9" height="15.9"/>
      <rect class="st7" x="1730.1" y="-193.1" width="15.9" height="15.9"/>
      <rect class="st7" x="1690.3" y="-153.2" width="15.9" height="15.9"/>
      <rect class="st7" x="1650.6" y="-193" width="15.9" height="15.9"/>
      <rect class="st7" x="1849.5" y="-153.3" width="15.9" height="15.9"/>
      <rect class="st7" x="1809.7" y="-193.1" width="15.9" height="15.9"/>
      <rect class="st3" x="1692.3" y="-191.1" width="11.9" height="11.9"/>
      <rect class="st7" x="1690.4" y="-232.8" width="15.9" height="15.9"/>
      <rect class="st3" x="1732.1" y="-230.9" width="11.9" height="11.9"/>
      <rect class="st3" x="1811.7" y="-230.9" width="11.9" height="11.9"/>
      <rect class="st3" x="1851.5" y="-191.1" width="11.9" height="11.9"/>
      <rect class="st3" x="1453.7" y="47.7" width="11.9" height="11.9"/>
      <rect class="st4" x="1885.3" y="-117.5" width="23.9" height="23.9"/>
      <rect class="st8" x="1887.3" y="-155.3" width="19.9" height="19.9"/>
      <rect class="st7" x="1889.3" y="-193.1" width="15.9" height="15.9"/>
      <rect class="st3" x="1891.3" y="-230.9" width="11.9" height="11.9"/>
      <rect class="st7" x="1889.4" y="125.3" width="15.9" height="15.9"/>
      <rect class="st3" x="1891.4" y="87.5" width="11.9" height="11.9"/>
      <rect class="st3" x="1851.6" y="127.3" width="11.9" height="11.9"/>
      <rect class="st6" x="1853.5" y="169.1" width="8" height="8"/>
    </g>
  </g>
</svg>